<mxfile host="app.diagrams.net" agent="Mozilla/5.0 (Windows NT 10.0; Win64; x64) AppleWebKit/537.36 (KHTML, like Gecko) Chrome/134.0.0.0 Safari/537.36" version="26.1.3">
  <diagram id="C5RBs43oDa-KdzZeNtuy" name="Page-1">
    <mxGraphModel dx="1000" dy="497" grid="1" gridSize="10" guides="1" tooltips="1" connect="1" arrows="1" fold="1" page="1" pageScale="1" pageWidth="827" pageHeight="1169" math="0" shadow="0">
      <root>
        <mxCell id="WIyWlLk6GJQsqaUBKTNV-0" />
        <mxCell id="WIyWlLk6GJQsqaUBKTNV-1" parent="WIyWlLk6GJQsqaUBKTNV-0" />
        <mxCell id="LlZzzgiMHvj2kryxVTmK-0" style="edgeStyle=orthogonalEdgeStyle;rounded=0;orthogonalLoop=1;jettySize=auto;html=1;entryX=0;entryY=0.5;entryDx=0;entryDy=0;" edge="1" parent="WIyWlLk6GJQsqaUBKTNV-1" source="WIyWlLk6GJQsqaUBKTNV-3" target="LlZzzgiMHvj2kryxVTmK-1">
          <mxGeometry relative="1" as="geometry">
            <mxPoint x="370" y="90" as="targetPoint" />
          </mxGeometry>
        </mxCell>
        <mxCell id="WIyWlLk6GJQsqaUBKTNV-3" value="Eduardo está precisando pedir os seus remédios" style="rounded=1;whiteSpace=wrap;html=1;fontSize=12;glass=0;strokeWidth=1;shadow=0;" parent="WIyWlLk6GJQsqaUBKTNV-1" vertex="1">
          <mxGeometry x="91" y="60" width="180" height="60" as="geometry" />
        </mxCell>
        <mxCell id="LlZzzgiMHvj2kryxVTmK-3" value="" style="edgeStyle=orthogonalEdgeStyle;rounded=0;orthogonalLoop=1;jettySize=auto;html=1;" edge="1" parent="WIyWlLk6GJQsqaUBKTNV-1" source="LlZzzgiMHvj2kryxVTmK-1" target="LlZzzgiMHvj2kryxVTmK-2">
          <mxGeometry relative="1" as="geometry" />
        </mxCell>
        <mxCell id="LlZzzgiMHvj2kryxVTmK-1" value="Pesquisa &quot;Entrega rápida de remédios&quot; no google e tem a indicação da FastFarma.&amp;nbsp;" style="rounded=1;whiteSpace=wrap;html=1;fontSize=12;glass=0;strokeWidth=1;shadow=0;" vertex="1" parent="WIyWlLk6GJQsqaUBKTNV-1">
          <mxGeometry x="336" y="60" width="180" height="60" as="geometry" />
        </mxCell>
        <mxCell id="LlZzzgiMHvj2kryxVTmK-6" value="" style="edgeStyle=orthogonalEdgeStyle;rounded=0;orthogonalLoop=1;jettySize=auto;html=1;" edge="1" parent="WIyWlLk6GJQsqaUBKTNV-1" source="LlZzzgiMHvj2kryxVTmK-2" target="LlZzzgiMHvj2kryxVTmK-5">
          <mxGeometry relative="1" as="geometry" />
        </mxCell>
        <mxCell id="LlZzzgiMHvj2kryxVTmK-2" value="Entra na loja de apps e baixa o nosso app." style="rounded=1;whiteSpace=wrap;html=1;fontSize=12;glass=0;strokeWidth=1;shadow=0;" vertex="1" parent="WIyWlLk6GJQsqaUBKTNV-1">
          <mxGeometry x="557" y="60" width="180" height="60" as="geometry" />
        </mxCell>
        <mxCell id="LlZzzgiMHvj2kryxVTmK-9" value="" style="edgeStyle=orthogonalEdgeStyle;rounded=0;orthogonalLoop=1;jettySize=auto;html=1;" edge="1" parent="WIyWlLk6GJQsqaUBKTNV-1" source="LlZzzgiMHvj2kryxVTmK-5" target="LlZzzgiMHvj2kryxVTmK-8">
          <mxGeometry relative="1" as="geometry" />
        </mxCell>
        <mxCell id="LlZzzgiMHvj2kryxVTmK-5" value="&amp;nbsp;Assim que o Eduardo abre pela primeira vez e já é direcionado a tela principal do app." style="rounded=1;whiteSpace=wrap;html=1;glass=0;strokeWidth=1;shadow=0;" vertex="1" parent="WIyWlLk6GJQsqaUBKTNV-1">
          <mxGeometry x="557" y="180" width="180" height="60" as="geometry" />
        </mxCell>
        <mxCell id="LlZzzgiMHvj2kryxVTmK-7" value="" style="verticalLabelPosition=bottom;verticalAlign=top;html=1;shadow=0;dashed=0;strokeWidth=1;shape=mxgraph.android.phone2;strokeColor=#c0c0c0;" vertex="1" parent="WIyWlLk6GJQsqaUBKTNV-1">
          <mxGeometry x="470" y="160" width="70" height="100" as="geometry" />
        </mxCell>
        <mxCell id="LlZzzgiMHvj2kryxVTmK-16" value="" style="edgeStyle=orthogonalEdgeStyle;rounded=0;orthogonalLoop=1;jettySize=auto;html=1;" edge="1" parent="WIyWlLk6GJQsqaUBKTNV-1" source="LlZzzgiMHvj2kryxVTmK-8" target="LlZzzgiMHvj2kryxVTmK-15">
          <mxGeometry relative="1" as="geometry" />
        </mxCell>
        <mxCell id="LlZzzgiMHvj2kryxVTmK-8" value="Ao clicar em um remédio o Eduardo é direcionado para a segunda tela principal, com o remédio escolhido e os preços em diferentes farmacias" style="rounded=1;whiteSpace=wrap;html=1;glass=0;strokeWidth=1;shadow=0;" vertex="1" parent="WIyWlLk6GJQsqaUBKTNV-1">
          <mxGeometry x="563" y="280" width="168" height="90" as="geometry" />
        </mxCell>
        <mxCell id="LlZzzgiMHvj2kryxVTmK-10" value="" style="verticalLabelPosition=bottom;verticalAlign=top;html=1;shadow=0;dashed=0;strokeWidth=1;shape=mxgraph.android.phone2;strokeColor=#c0c0c0;" vertex="1" parent="WIyWlLk6GJQsqaUBKTNV-1">
          <mxGeometry x="470" y="280" width="70" height="100" as="geometry" />
        </mxCell>
        <mxCell id="LlZzzgiMHvj2kryxVTmK-19" value="Sim" style="edgeStyle=orthogonalEdgeStyle;rounded=0;orthogonalLoop=1;jettySize=auto;html=1;entryX=1;entryY=0.5;entryDx=0;entryDy=0;exitX=0.956;exitY=0.48;exitDx=0;exitDy=0;exitPerimeter=0;" edge="1" parent="WIyWlLk6GJQsqaUBKTNV-1" source="LlZzzgiMHvj2kryxVTmK-13" target="LlZzzgiMHvj2kryxVTmK-5">
          <mxGeometry relative="1" as="geometry">
            <mxPoint x="820" y="210" as="targetPoint" />
            <Array as="points">
              <mxPoint x="734" y="570" />
              <mxPoint x="757" y="570" />
              <mxPoint x="757" y="210" />
            </Array>
          </mxGeometry>
        </mxCell>
        <mxCell id="LlZzzgiMHvj2kryxVTmK-23" value="" style="edgeStyle=orthogonalEdgeStyle;rounded=0;orthogonalLoop=1;jettySize=auto;html=1;exitX=0;exitY=0.5;exitDx=0;exitDy=0;" edge="1" parent="WIyWlLk6GJQsqaUBKTNV-1" source="LlZzzgiMHvj2kryxVTmK-26" target="LlZzzgiMHvj2kryxVTmK-22">
          <mxGeometry relative="1" as="geometry" />
        </mxCell>
        <mxCell id="LlZzzgiMHvj2kryxVTmK-31" value="Não" style="edgeLabel;html=1;align=center;verticalAlign=middle;resizable=0;points=[];" vertex="1" connectable="0" parent="LlZzzgiMHvj2kryxVTmK-23">
          <mxGeometry x="0.1698" relative="1" as="geometry">
            <mxPoint as="offset" />
          </mxGeometry>
        </mxCell>
        <mxCell id="LlZzzgiMHvj2kryxVTmK-27" value="" style="edgeStyle=orthogonalEdgeStyle;rounded=0;orthogonalLoop=1;jettySize=auto;html=1;" edge="1" parent="WIyWlLk6GJQsqaUBKTNV-1" source="LlZzzgiMHvj2kryxVTmK-13" target="LlZzzgiMHvj2kryxVTmK-26">
          <mxGeometry relative="1" as="geometry" />
        </mxCell>
        <mxCell id="LlZzzgiMHvj2kryxVTmK-13" value="Deseja adicionar outros&lt;div&gt;produtos?&lt;/div&gt;" style="rhombus;whiteSpace=wrap;html=1;rounded=1;glass=0;strokeWidth=1;shadow=0;" vertex="1" parent="WIyWlLk6GJQsqaUBKTNV-1">
          <mxGeometry x="570" y="510" width="172" height="120" as="geometry" />
        </mxCell>
        <mxCell id="LlZzzgiMHvj2kryxVTmK-17" value="" style="edgeStyle=orthogonalEdgeStyle;rounded=0;orthogonalLoop=1;jettySize=auto;html=1;" edge="1" parent="WIyWlLk6GJQsqaUBKTNV-1" source="LlZzzgiMHvj2kryxVTmK-15" target="LlZzzgiMHvj2kryxVTmK-13">
          <mxGeometry relative="1" as="geometry" />
        </mxCell>
        <mxCell id="LlZzzgiMHvj2kryxVTmK-15" value="Eduardo adiciona o produto ao carrinho e recebe um pop up de retorno a tela de inicio ou ir para o carrinho finalizar a compra&amp;nbsp;" style="rounded=1;whiteSpace=wrap;html=1;glass=0;strokeWidth=1;shadow=0;" vertex="1" parent="WIyWlLk6GJQsqaUBKTNV-1">
          <mxGeometry x="563" y="399" width="168" height="90" as="geometry" />
        </mxCell>
        <mxCell id="LlZzzgiMHvj2kryxVTmK-21" value="" style="verticalLabelPosition=bottom;verticalAlign=top;html=1;shadow=0;dashed=0;strokeWidth=1;shape=mxgraph.android.phone2;strokeColor=#c0c0c0;" vertex="1" parent="WIyWlLk6GJQsqaUBKTNV-1">
          <mxGeometry x="93" y="430" width="70" height="100" as="geometry" />
        </mxCell>
        <mxCell id="LlZzzgiMHvj2kryxVTmK-25" value="" style="edgeStyle=orthogonalEdgeStyle;rounded=0;orthogonalLoop=1;jettySize=auto;html=1;" edge="1" parent="WIyWlLk6GJQsqaUBKTNV-1" source="LlZzzgiMHvj2kryxVTmK-22" target="LlZzzgiMHvj2kryxVTmK-24">
          <mxGeometry relative="1" as="geometry" />
        </mxCell>
        <mxCell id="LlZzzgiMHvj2kryxVTmK-22" value="Eduardo é direcionado para uma tela de cadastro para concluir a compra" style="rounded=1;whiteSpace=wrap;html=1;glass=0;strokeWidth=1;shadow=0;" vertex="1" parent="WIyWlLk6GJQsqaUBKTNV-1">
          <mxGeometry x="58" y="535" width="140" height="70" as="geometry" />
        </mxCell>
        <mxCell id="LlZzzgiMHvj2kryxVTmK-33" value="" style="edgeStyle=orthogonalEdgeStyle;rounded=0;orthogonalLoop=1;jettySize=auto;html=1;" edge="1" parent="WIyWlLk6GJQsqaUBKTNV-1" source="LlZzzgiMHvj2kryxVTmK-24" target="LlZzzgiMHvj2kryxVTmK-32">
          <mxGeometry relative="1" as="geometry" />
        </mxCell>
        <mxCell id="LlZzzgiMHvj2kryxVTmK-24" value="Logo após é direcionado para uma tela confirmando os detalhes dos pedidos e confirma a forma de pagamento" style="whiteSpace=wrap;html=1;rounded=1;glass=0;strokeWidth=1;shadow=0;" vertex="1" parent="WIyWlLk6GJQsqaUBKTNV-1">
          <mxGeometry x="30" y="680" width="196" height="80" as="geometry" />
        </mxCell>
        <mxCell id="LlZzzgiMHvj2kryxVTmK-29" value="" style="edgeStyle=orthogonalEdgeStyle;rounded=0;orthogonalLoop=1;jettySize=auto;html=1;entryX=0.5;entryY=0;entryDx=0;entryDy=0;" edge="1" parent="WIyWlLk6GJQsqaUBKTNV-1" source="LlZzzgiMHvj2kryxVTmK-26" target="LlZzzgiMHvj2kryxVTmK-24">
          <mxGeometry relative="1" as="geometry">
            <mxPoint x="340" y="700" as="targetPoint" />
            <Array as="points">
              <mxPoint x="300" y="650" />
              <mxPoint x="128" y="650" />
            </Array>
          </mxGeometry>
        </mxCell>
        <mxCell id="LlZzzgiMHvj2kryxVTmK-30" value="Sim" style="edgeLabel;html=1;align=center;verticalAlign=middle;resizable=0;points=[];" vertex="1" connectable="0" parent="LlZzzgiMHvj2kryxVTmK-29">
          <mxGeometry x="-0.1202" relative="1" as="geometry">
            <mxPoint as="offset" />
          </mxGeometry>
        </mxCell>
        <mxCell id="LlZzzgiMHvj2kryxVTmK-26" value="Já possui login?" style="rhombus;whiteSpace=wrap;html=1;rounded=1;glass=0;strokeWidth=1;shadow=0;" vertex="1" parent="WIyWlLk6GJQsqaUBKTNV-1">
          <mxGeometry x="290" y="510" width="172" height="120" as="geometry" />
        </mxCell>
        <mxCell id="LlZzzgiMHvj2kryxVTmK-35" value="" style="edgeStyle=orthogonalEdgeStyle;rounded=0;orthogonalLoop=1;jettySize=auto;html=1;" edge="1" parent="WIyWlLk6GJQsqaUBKTNV-1" source="LlZzzgiMHvj2kryxVTmK-32" target="LlZzzgiMHvj2kryxVTmK-34">
          <mxGeometry relative="1" as="geometry" />
        </mxCell>
        <mxCell id="LlZzzgiMHvj2kryxVTmK-32" value="É direcionado para a tela de entrega do app, com a localização da loja e o tempo previsto de entrega" style="rounded=1;whiteSpace=wrap;html=1;glass=0;strokeWidth=1;shadow=0;" vertex="1" parent="WIyWlLk6GJQsqaUBKTNV-1">
          <mxGeometry x="270" y="680" width="160" height="80" as="geometry" />
        </mxCell>
        <mxCell id="LlZzzgiMHvj2kryxVTmK-41" value="" style="edgeStyle=orthogonalEdgeStyle;rounded=0;orthogonalLoop=1;jettySize=auto;html=1;" edge="1" parent="WIyWlLk6GJQsqaUBKTNV-1" source="LlZzzgiMHvj2kryxVTmK-34" target="LlZzzgiMHvj2kryxVTmK-40">
          <mxGeometry relative="1" as="geometry" />
        </mxCell>
        <mxCell id="LlZzzgiMHvj2kryxVTmK-34" value="Eduardo recebe o seu produto dentro do tempo previsto." style="rounded=1;whiteSpace=wrap;html=1;glass=0;strokeWidth=1;shadow=0;" vertex="1" parent="WIyWlLk6GJQsqaUBKTNV-1">
          <mxGeometry x="510" y="690" width="140" height="60" as="geometry" />
        </mxCell>
        <mxCell id="LlZzzgiMHvj2kryxVTmK-37" value="" style="verticalLabelPosition=bottom;verticalAlign=top;html=1;shadow=0;dashed=0;strokeWidth=1;shape=mxgraph.android.phone2;strokeColor=#c0c0c0;" vertex="1" parent="WIyWlLk6GJQsqaUBKTNV-1">
          <mxGeometry x="470" y="399" width="70" height="100" as="geometry" />
        </mxCell>
        <mxCell id="LlZzzgiMHvj2kryxVTmK-38" value="" style="verticalLabelPosition=bottom;verticalAlign=top;html=1;shadow=0;dashed=0;strokeWidth=1;shape=mxgraph.android.phone2;strokeColor=#c0c0c0;" vertex="1" parent="WIyWlLk6GJQsqaUBKTNV-1">
          <mxGeometry x="93" y="780" width="70" height="100" as="geometry" />
        </mxCell>
        <mxCell id="LlZzzgiMHvj2kryxVTmK-39" value="" style="verticalLabelPosition=bottom;verticalAlign=top;html=1;shadow=0;dashed=0;strokeWidth=1;shape=mxgraph.android.phone2;strokeColor=#c0c0c0;" vertex="1" parent="WIyWlLk6GJQsqaUBKTNV-1">
          <mxGeometry x="315" y="780" width="70" height="100" as="geometry" />
        </mxCell>
        <mxCell id="LlZzzgiMHvj2kryxVTmK-40" value="Eduardo recebe uma notificação sobre a entrega do remédio e uma pesquisa de satisfação via app e email." style="rounded=1;whiteSpace=wrap;html=1;glass=0;strokeWidth=1;shadow=0;" vertex="1" parent="WIyWlLk6GJQsqaUBKTNV-1">
          <mxGeometry x="500" y="800" width="160" height="100" as="geometry" />
        </mxCell>
        <mxCell id="LlZzzgiMHvj2kryxVTmK-42" value="" style="verticalLabelPosition=bottom;verticalAlign=top;html=1;shadow=0;dashed=0;strokeWidth=1;shape=mxgraph.android.phone2;strokeColor=#c0c0c0;" vertex="1" parent="WIyWlLk6GJQsqaUBKTNV-1">
          <mxGeometry x="545" y="910" width="70" height="100" as="geometry" />
        </mxCell>
      </root>
    </mxGraphModel>
  </diagram>
</mxfile>
